<svg version="1.1" id="Layer_1" xmlns="http://www.w3.org/2000/svg" xmlns:xlink="http://www.w3.org/1999/xlink" x="0px" y="0px"
	 width="100%" viewBox="0 0 200 200" enable-background="new 0 0 200 200" xml:space="preserve">
<path fill="#2BBDEF" opacity="1.000000" stroke="none" 
	d="
M116.000000,201.000000 
	C77.357201,201.000000 39.214397,201.000000 1.035799,201.000000 
	C1.035799,134.398911 1.035799,67.797783 1.035799,1.098330 
	C67.559296,1.098330 134.118790,1.098330 200.839142,1.098330 
	C200.839142,67.666351 200.839142,134.333145 200.839142,201.000000 
	C172.798065,201.000000 144.649033,201.000000 116.000000,201.000000 
M33.849823,143.499985 
	C33.845203,151.832123 34.030811,160.170578 33.754086,168.493668 
	C33.619801,172.532501 34.656742,174.068497 38.991394,173.947617 
	C49.648125,173.650467 60.340122,173.433105 70.979141,173.962784 
	C87.052818,174.763031 100.601234,162.094574 100.866158,145.045670 
	C101.319206,115.890175 101.333450,86.716911 100.857994,57.562103 
	C100.579765,40.500927 88.418648,27.547827 70.491928,28.082218 
	C60.002758,28.394899 49.491764,28.321796 39.000420,28.046968 
	C34.716099,27.934740 33.738712,29.454906 33.755299,33.515530 
	C33.903713,69.843201 33.846447,106.171707 33.849823,143.499985 
M151.065796,69.500000 
	C151.065140,62.005390 151.178177,54.508205 151.008774,47.017410 
	C150.939453,43.951389 152.031143,42.870304 155.049973,42.987293 
	C159.540009,43.161301 164.043289,43.107201 168.538269,43.017395 
	C179.189926,42.804581 177.731918,44.964092 178.074158,33.470013 
	C178.196701,29.354321 176.897369,28.050934 172.719025,28.099331 
	C154.734283,28.307640 136.745743,28.188345 118.758575,28.187254 
	C107.180367,28.186552 107.261681,28.179892 108.075500,39.585342 
	C108.260468,42.177612 109.204514,43.086647 111.703934,43.049522 
	C117.531746,42.962963 123.380440,43.316582 129.185104,42.941490 
	C133.851028,42.639980 135.023453,44.294044 135.003159,48.842186 
	C134.832138,87.147392 134.870941,125.453781 134.934921,163.759659 
	C134.954468,175.469009 133.312943,173.350891 144.908371,173.934998 
	C150.220917,174.202606 151.202286,172.297272 151.171616,167.430145 
	C150.968109,135.121140 151.066010,102.810265 151.065796,69.500000 
z"/>
<path fill="#F7FEFE" opacity="1.000000" stroke="none" 
	d="
M33.849762,142.999969 
	C33.846447,106.171707 33.903713,69.843201 33.755299,33.515530 
	C33.738712,29.454906 34.716099,27.934740 39.000420,28.046968 
	C49.491764,28.321796 60.002758,28.394899 70.491928,28.082218 
	C88.418648,27.547827 100.579765,40.500927 100.857994,57.562103 
	C101.333450,86.716911 101.319206,115.890175 100.866158,145.045670 
	C100.601234,162.094574 87.052818,174.763031 70.979141,173.962784 
	C60.340122,173.433105 49.648125,173.650467 38.991394,173.947617 
	C34.656742,174.068497 33.619801,172.532501 33.754086,168.493668 
	C34.030811,160.170578 33.845203,151.832123 33.849762,142.999969 
M82.196922,51.528419 
	C79.370972,45.821171 74.435341,43.545589 68.408501,43.300472 
	C64.253944,43.131500 60.069427,43.511299 55.930012,43.210075 
	C51.708382,42.902870 50.642803,44.553173 50.659630,48.632534 
	C50.800396,82.758530 50.726875,116.885406 50.718086,151.012024 
	C50.717495,153.313324 50.718010,155.614609 50.718010,158.698685 
	C56.867306,158.698685 62.473915,158.744507 68.079498,158.688202 
	C77.011353,158.598480 82.417130,154.079163 83.938835,145.262604 
	C84.445419,142.327469 84.670433,139.309113 84.677841,136.327942 
	C84.736610,112.689110 84.822197,89.049110 84.613693,65.411987 
	C84.574883,61.012699 83.250618,56.624752 82.196922,51.528419 
z"/>
<path fill="#0B456E" opacity="1.000000" stroke="none" 
	d="
M151.065826,70.000000 
	C151.066010,102.810265 150.968109,135.121140 151.171616,167.430145 
	C151.202286,172.297272 150.220917,174.202606 144.908371,173.934998 
	C133.312943,173.350891 134.954468,175.469009 134.934921,163.759659 
	C134.870941,125.453781 134.832138,87.147392 135.003159,48.842186 
	C135.023453,44.294044 133.851028,42.639980 129.185104,42.941490 
	C123.380440,43.316582 117.531746,42.962963 111.703934,43.049522 
	C109.204514,43.086647 108.260468,42.177612 108.075500,39.585342 
	C107.261681,28.179892 107.180367,28.186552 118.758575,28.187254 
	C136.745743,28.188345 154.734283,28.307640 172.719025,28.099331 
	C176.897369,28.050934 178.196701,29.354321 178.074158,33.470013 
	C177.731918,44.964092 179.189926,42.804581 168.538269,43.017395 
	C164.043289,43.107201 159.540009,43.161301 155.049973,42.987293 
	C152.031143,42.870304 150.939453,43.951389 151.008774,47.017410 
	C151.178177,54.508205 151.065140,62.005390 151.065826,70.000000 
z"/>
<path fill="#2FBDEE" opacity="1.000000" stroke="none" 
	d="
M82.358261,51.879997 
	C83.250618,56.624752 84.574883,61.012699 84.613693,65.411987 
	C84.822197,89.049110 84.736610,112.689110 84.677841,136.327942 
	C84.670433,139.309113 84.445419,142.327469 83.938835,145.262604 
	C82.417130,154.079163 77.011353,158.598480 68.079498,158.688202 
	C62.473915,158.744507 56.867306,158.698685 50.718010,158.698685 
	C50.718010,155.614609 50.717495,153.313324 50.718086,151.012024 
	C50.726875,116.885406 50.800396,82.758530 50.659630,48.632534 
	C50.642803,44.553173 51.708382,42.902870 55.930012,43.210075 
	C60.069427,43.511299 64.253944,43.131500 68.408501,43.300472 
	C74.435341,43.545589 79.370972,45.821171 82.358261,51.879997 
z"/>
</svg>